<?xml version="1.0" standalone="no"?>
<!DOCTYPE svg PUBLIC "-//W3C//DTD SVG 20010904//EN"
 "http://www.w3.org/TR/2001/REC-SVG-20010904/DTD/svg10.dtd">
<svg version="1.0" xmlns="http://www.w3.org/2000/svg"
 width="512.000000pt" height="512.000000pt" viewBox="0 0 512.000000 512.000000"
 preserveAspectRatio="xMidYMid meet">
<metadata>
Created by potrace 1.16, written by Peter Selinger 2001-2019
</metadata>
<g transform="translate(0.000000,512.000000) scale(0.100000,-0.100000)"
fill="#000000" stroke="none">
<path d="M2705 4993 c-27 -9 -89 -28 -137 -44 -101 -34 -105 -34 -87 -12 13
15 10 16 -28 10 -23 -4 -76 -22 -117 -41 -41 -19 -85 -37 -98 -42 -20 -6 -21
-5 -9 10 24 29 -9 19 -84 -25 -39 -22 -84 -42 -101 -44 -32 -3 -100 -34 -146
-67 -44 -31 -63 -1 -36 57 16 35 3 42 -38 20 -54 -29 -112 -101 -154 -189 -21
-43 -40 -74 -43 -69 -4 6 -9 29 -13 51 -13 81 -34 44 -43 -73 l-6 -80 -16 45
-17 45 -11 -28 c-6 -16 -11 -57 -11 -93 0 -35 -3 -64 -7 -64 -4 0 -18 10 -31
23 l-25 22 7 -42 c3 -23 8 -47 11 -55 4 -9 -7 -18 -30 -27 -34 -12 -36 -15
-29 -44 l6 -32 -21 27 c-12 15 -28 42 -36 60 l-14 33 0 -30 c-1 -16 6 -55 14
-85 20 -75 19 -77 -16 -85 -54 -12 -138 -55 -133 -68 3 -8 -14 -22 -40 -35
-79 -38 -152 -115 -171 -182 -7 -23 -5 -23 31 11 38 34 87 69 99 69 3 0 -7
-17 -24 -37 -46 -59 -79 -133 -87 -193 -7 -51 -6 -54 10 -41 13 11 11 1 -9
-45 -17 -39 -28 -81 -30 -124 -1 -36 -10 -87 -18 -115 -21 -68 -30 -135 -17
-135 6 0 7 -22 4 -59 -9 -81 3 -174 21 -167 11 4 13 -10 8 -78 -7 -100 5 -265
18 -245 6 10 9 5 9 -17 0 -29 30 -157 45 -196 6 -16 0 -18 -61 -18 -82 0 -128
-23 -149 -75 -49 -116 -16 -411 75 -667 16 -46 41 -131 56 -189 29 -116 51
-162 97 -199 26 -21 41 -25 93 -24 37 1 71 8 86 18 l25 16 28 -102 c74 -265
185 -458 391 -684 182 -199 393 -349 582 -413 137 -47 513 -49 672 -4 161 45
297 130 459 288 132 129 189 199 258 315 90 153 137 278 202 535 9 33 17 43
51 57 43 19 115 79 132 112 6 11 21 58 33 105 12 47 45 140 72 207 28 66 56
147 63 180 16 78 16 420 0 471 -15 46 -52 87 -92 104 -28 12 -30 15 -24 53 3
23 9 106 12 186 4 80 11 151 17 158 6 7 12 92 15 188 3 102 8 170 13 162 16
-24 9 54 -16 192 -29 158 -28 150 -10 126 24 -32 18 2 -11 64 -14 30 -40 73
-59 95 -51 63 -64 149 -31 204 11 17 -36 14 -61 -4 -20 -14 -23 -13 -37 7 -9
12 -16 27 -16 32 0 18 -154 255 -162 250 -4 -3 -8 -14 -8 -25 0 -10 -4 -19
-10 -19 -5 0 -10 7 -10 15 0 26 -49 97 -108 158 -60 61 -72 67 -72 40 0 -10
-19 16 -41 57 -52 97 -75 126 -92 112 -10 -8 -18 0 -36 37 -28 61 -108 142
-120 123 -6 -10 -17 -4 -42 23 -69 73 -177 145 -258 170 -23 7 -24 5 -18 -24
7 -34 1 -34 -38 0 -11 9 -48 31 -82 49 -35 17 -63 34 -63 36 0 3 5 14 10 25
13 23 5 23 -65 2z m-600 -1082 c50 -11 123 -31 163 -46 85 -30 214 -55 292
-55 73 0 200 23 335 60 144 40 353 52 455 26 219 -56 382 -225 471 -491 19
-56 24 -92 24 -175 0 -97 -2 -109 -27 -151 -46 -75 -39 -107 51 -244 43 -66
45 -73 44 -135 -1 -36 -7 -121 -14 -190 l-13 -125 -11 60 c-7 33 -17 72 -23
86 -16 39 -79 96 -121 110 -20 7 -50 24 -68 39 -17 16 -47 33 -67 40 -20 6
-36 18 -36 25 0 19 -55 35 -124 35 -34 0 -67 4 -74 8 -16 11 -122 -3 -181 -23
-32 -11 -47 -12 -52 -4 -9 16 -69 -4 -140 -47 l-57 -34 -315 0 -316 0 -45 48
c-26 28 -61 53 -81 59 -34 11 -35 11 -28 -15 5 -21 3 -24 -11 -19 -45 18 -128
36 -186 43 -59 6 -63 5 -51 -10 12 -15 5 -16 -76 -16 -108 0 -203 -17 -203
-36 0 -8 -6 -14 -14 -14 -7 0 -39 -14 -71 -31 -33 -17 -77 -38 -99 -45 -92
-33 -140 -96 -152 -203 l-7 -62 -31 3 -31 3 -8 100 c-4 55 -6 132 -4 172 4 78
18 105 91 188 70 77 78 120 50 247 -24 105 -24 294 0 378 32 111 83 198 166
280 160 160 352 212 595 161z m665 -1331 c-14 -11 -30 -23 -35 -27 -6 -5 -27
-23 -48 -40 -34 -30 -44 -33 -103 -33 -71 0 -85 5 -135 49 -19 16 -45 39 -59
50 l-25 20 215 0 215 0 -25 -19z m1346 -158 c35 -28 42 -76 40 -277 -3 -185
-4 -193 -35 -284 -18 -52 -48 -128 -67 -169 -18 -41 -39 -104 -45 -141 -10
-57 -17 -72 -54 -109 -23 -23 -47 -42 -52 -42 -6 0 -7 22 -2 58 4 31 13 176
19 322 6 146 17 330 25 410 16 156 29 190 92 231 35 23 52 23 79 1z m-1448
-37 c7 -75 36 -175 70 -240 40 -76 144 -189 202 -219 93 -49 117 -59 179 -72
130 -27 328 -13 464 35 84 29 182 79 205 104 26 29 48 93 68 200 9 48 18 86
20 85 6 -7 -16 -521 -26 -604 -30 -249 -159 -532 -297 -654 -97 -85 -184 -120
-213 -84 -16 18 -16 94 0 170 17 80 17 167 1 197 -27 50 -120 60 -221 22 -152
-58 -160 -59 -218 -47 -63 13 -136 49 -201 98 -44 34 -45 34 -152 34 l-107 0
-51 -40 c-28 -22 -53 -40 -57 -40 -3 0 -18 -9 -33 -19 -15 -11 -54 -25 -88
-32 -57 -12 -65 -11 -119 10 -170 66 -211 73 -264 46 -49 -25 -56 -68 -35
-222 22 -153 17 -186 -28 -191 -63 -7 -196 102 -281 233 -137 208 -198 439
-241 905 -21 234 -21 230 15 230 25 0 30 -4 30 -23 0 -37 39 -207 55 -238 65
-124 438 -222 681 -178 162 29 322 152 398 305 34 69 66 185 66 240 0 25 0 25
88 22 l87 -3 3 -30z m-1630 -19 c15 -8 40 -28 55 -44 25 -26 30 -44 48 -163
11 -74 24 -170 29 -214 12 -92 32 -219 62 -387 11 -64 18 -128 14 -141 -9 -36
-74 -59 -120 -41 -28 11 -54 67 -80 174 -15 58 -33 121 -40 140 -18 45 -38
111 -72 235 -23 87 -27 120 -28 258 -1 155 -1 159 23 178 28 22 71 25 109 5z
m1272 -1256 c47 2 155 4 240 4 282 -2 404 -2 476 -1 120 3 155 -37 129 -149
-22 -96 -20 -151 9 -193 37 -55 40 -89 14 -141 -48 -95 -189 -163 -338 -164
-97 -1 -147 13 -195 55 -42 37 -51 73 -29 108 20 30 30 38 101 87 76 52 81 60
52 90 -45 49 -116 77 -205 82 -72 4 -88 1 -142 -23 -71 -32 -107 -65 -98 -92
3 -10 33 -38 66 -62 69 -50 100 -85 100 -113 0 -35 -30 -77 -73 -102 -167 -96
-487 33 -487 197 0 13 11 40 24 60 36 53 40 89 20 188 -21 106 -15 136 36 162
30 16 47 17 125 10 50 -4 128 -6 175 -3z"/>
</g>
</svg>
